<svg width="273" height="425" viewBox="0 0 273 425" fill="none" xmlns="http://www.w3.org/2000/svg">
<g clip-path="url(#clip0_19_639)">
<path d="M128.719 371.066H104.722C103.366 370.364 102.212 369.762 100.957 369.109C99.4005 369.009 97.6936 368.909 96.0369 368.808C94.2798 367.855 92.573 366.952 90.9665 366.099C90.1632 363.942 90.2636 361.985 90.4143 359.928C91.4183 358.975 92.3219 358.072 92.9746 357.419C95.5851 356.416 98.9486 356.416 113.357 357.219C113.658 357.369 113.959 357.57 114.26 357.72C114.863 358.022 115.465 358.272 116.218 358.674C119.732 358.774 123.397 358.874 126.962 358.975C128.2 360.313 128.284 362.002 127.213 364.042C129.321 365.146 129.321 365.146 132.183 362.085C132.333 361.032 132.584 359.777 132.885 358.021C133.538 357.319 134.341 356.266 135.345 355.463C136.149 354.811 137.153 355.011 137.956 355.764C138.592 358.573 138.709 364.611 138.307 373.876C137.203 375.23 135.898 376.735 134.642 378.291C133.638 379.595 132.735 380.95 131.681 382.405C128.819 383.91 125.907 385.515 123.046 387.02C120.937 387.171 118.979 387.522 117.021 388.877C109.592 389.429 101.911 389.479 94.3802 388.927C93.326 388.475 92.4725 387.974 91.5187 387.673C89.0086 386.92 86.2977 387.221 83.7876 385.917C81.4782 384.763 78.7171 384.562 76.3074 383.308C75.454 382.856 74.3997 382.856 73.2451 382.605C71.3374 380.95 69.3293 379.194 67.3714 377.488H65.3633C64.5601 378.642 63.807 379.746 63.1544 380.699C61.2969 381.301 59.7407 381.401 58.6362 379.495C59.1884 376.685 60.9455 374.026 60.1925 370.915C60.9455 371.016 61.4977 370.765 61.7488 370.012C61.9496 369.36 61.7488 369.109 61.1463 369.41C60.4937 369.711 60.2427 370.313 60.3431 371.016C57.833 371.568 56.5779 373.625 54.8208 375.632C53.867 378.391 54.6702 382.003 52.5115 384.562C52.6119 387.171 52.0095 389.529 52.8127 391.787C53.2144 392.288 53.867 392.389 54.369 391.686C55.7245 389.83 56.9795 387.873 58.1844 386.117C60.0921 385.114 61.8994 384.211 63.6564 383.258C64.3091 383.408 65.0119 383.358 65.5641 383.709C68.9779 385.917 71.488 389.027 73.3455 392.489C75.705 393.493 77.0102 390.984 79.0183 391.034C81.0264 391.034 82.9843 391.034 84.7414 391.034C85.896 391.636 86.7495 392.138 88.0045 392.79H96.2377C98.8984 392.339 100.706 390.131 103.266 391.385C104.672 392.64 104.772 394.195 104.119 396.302C103.417 397.005 102.463 397.908 101.76 398.61C97.543 399.714 93.326 398.359 89.6612 400.416C86.3479 398.961 82.5827 398.811 79.671 396.603C77.7633 397.456 76.3074 398.158 74.8013 398.811C72.5924 398.961 71.237 397.155 69.2289 396.402C67.9738 394.245 66.6686 391.937 65.4135 389.68C64.7107 389.579 64.1083 389.429 63.4556 389.328C60.3431 390.934 60.3933 395.349 56.3269 396.904C55.3229 396.954 53.6662 397.105 52.4613 397.155C50.3026 396.503 49.2986 395.198 48.4953 393.693C48.2945 391.737 48.0435 389.78 47.7925 387.372C45.7342 389.228 46.3367 391.737 45.1318 393.543C43.8767 395.449 43.1739 397.757 40.9148 398.911H38.2039C35.8444 397.857 35.9448 395.449 34.8905 394.044C35.5934 391.737 35.9448 389.328 37.0492 387.372C38.0533 385.565 37.8525 383.458 38.9569 381.752C41.0152 380.599 42.6719 379.093 43.0233 377.036C45.3326 376.434 46.8889 376.635 48.0937 378.291C48.3447 380.147 48.5958 382.104 48.8468 384.311C49.5831 383.274 50.0851 381.401 50.3528 378.692C51.8087 376.234 53.1642 373.575 51.9593 370.063C50.9553 368.708 49.8006 367.102 48.5958 365.547C48.0435 363.189 48.2443 360.982 49.148 358.674C50.5536 354.961 50.7545 350.947 52.7123 347.335C54.5698 343.823 55.3731 339.86 57.331 336.348C58.2848 334.642 58.3852 332.484 59.2888 330.779C60.5439 328.421 60.3933 325.611 62.05 323.303C63.7568 320.895 64.1585 317.784 65.2629 315.025C66.267 312.566 67.4216 310.158 68.6265 307.8C69.8313 305.442 71.1366 303.134 72.3414 300.776C72.492 300.475 72.4418 300.074 72.6426 299.823C74.9017 296.913 76.709 293.802 78.4159 290.541C79.9722 287.581 80.173 284.119 82.1811 281.41C84.641 274.888 88.5568 269.018 91.4183 262.646C91.8199 261.743 92.1211 260.79 92.3721 260.037C91.6191 258.181 90.3641 257.027 88.6572 256.776C85.3438 256.325 82.4823 254.318 79.1689 253.916C76.6086 252.311 73.2953 252.662 70.8354 250.705C63.4054 248.096 58.2346 245.538 52.9634 242.176C49.901 240.22 46.9893 237.962 43.8265 236.206C42.4209 235.403 41.1658 234.249 39.961 233.045C36.3966 229.533 32.8322 225.971 29.3683 222.359C27.31 220.201 25.1513 218.144 23.6954 215.435C22.591 213.428 20.6331 211.973 19.127 210.167C18.0728 208.913 17.0185 207.608 16.2153 206.153C14.8096 203.494 12.5505 201.487 11.4461 198.577C9.68899 193.962 8.48413 189.095 6.47604 184.58C5.97402 183.426 6.17483 181.921 6.07442 180.616C5.97402 178.961 5.82341 177.305 5.02018 175.75C3.81532 173.442 4.51815 171.234 5.87361 168.675C6.02422 164.11 6.12463 159.093 6.27523 154.126C6.77726 152.821 7.27928 151.617 7.7813 150.413C8.03231 147.403 8.23312 144.393 8.48413 141.483C8.93595 140.479 9.38777 139.576 9.78939 138.773C10.0404 137.218 9.33757 136.165 8.28332 135.261C6.72705 134.007 4.56836 133.706 3.21289 132.101C2.35946 131.097 1.40561 130.144 0.752982 129.442C-0.200861 127.134 -0.0502541 125.127 0.351364 123.17C1.35541 120.963 3.21289 119.558 5.22098 118.354C5.92382 118.354 6.72705 118.103 7.17887 118.354C9.58858 119.809 12.1489 120.11 15.0104 119.608C15.8137 118.253 16.7675 116.899 17.4703 115.444C21.5869 107.065 26.6574 99.2887 32.6314 92.1143C34.1375 90.3583 35.1415 88.2009 36.5974 86.3948C38.0533 84.5886 39.8104 82.9831 41.467 81.3275C47.3407 75.4574 47.8427 75.1062 56.3269 69.6376C61.0459 66.5771 65.6645 63.4164 70.3835 60.3559C70.3333 59.2522 70.2831 58.2487 70.1827 57.0948C68.5261 55.1381 66.8192 53.0811 65.2127 51.2248C63.5058 48.1643 61.799 45.3046 60.3933 42.2943C59.8411 41.1404 59.9415 39.6854 61.0459 38.5315C61.5981 38.7321 62.301 38.7321 62.6524 39.0833C64.1083 40.438 65.8151 41.6922 66.8192 43.3981C68.6767 46.5087 71.1868 49.2681 72.7933 52.5292C73.6467 54.2852 74.8013 55.8907 75.8556 57.6968C77.7131 57.5965 79.3698 57.446 81.0264 57.3457C84.3398 55.088 88.9584 55.9409 91.7697 52.6797C92.9746 50.2213 91.7697 48.1643 90.6151 45.8063V37.0765C91.1171 36.6751 91.5187 36.1734 92.0709 35.9226C92.7738 35.6215 93.4264 35.9226 93.7778 36.4744C93.9786 36.7253 94.2798 37.0263 94.2798 37.2772C93.8782 41.04 96.4385 44.251 96.4887 47.9636C96.4887 48.9169 96.8401 49.8701 97.1414 50.7732C97.2418 51.0743 97.5932 51.2749 97.8442 51.5258H104.571C106.027 50.8736 107.282 50.3719 108.688 49.7698C111.499 49.6193 114.511 49.519 117.323 49.3684C118.979 48.5155 120.435 47.7128 121.841 47.0104C122.092 46.2578 122.443 45.6558 122.443 45.0537C122.594 32.3604 122.694 19.6671 122.795 7.12431C124 5.26797 124.251 3.16078 125.957 1.85633C126.56 2.00685 127.363 1.95668 127.765 2.35805C128.166 2.75942 128.417 3.51198 128.468 4.11404C128.568 5.11746 128.568 6.07071 128.016 7.02396C126.66 9.13115 126.911 11.4892 127.062 13.8974C127.514 15.1015 128.016 16.3056 128.518 17.5599C128.518 20.52 129.12 23.5805 127.514 26.3399C127.966 28.2464 129.02 30.0024 128.518 32.1096C128.116 33.0126 127.664 33.9157 127.263 34.8188C127.213 35.1198 127.062 35.471 127.062 35.772C127.062 39.1335 127.012 42.4448 127.062 45.8063C127.062 46.3582 127.765 46.8599 128.317 47.5623C132.534 47.6626 136.851 47.763 141.018 47.8633C142.675 48.5155 143.98 49.8701 145.938 48.7664C146.641 47.4619 147.394 46.007 148.297 44.3011C148.498 42.194 148.699 39.8861 148.9 37.5782C149.452 36.3741 150.004 35.17 150.506 33.9659C150.506 30.2532 150.958 26.6409 152.615 23.2794C152.866 19.9681 155.175 17.1084 154.874 13.6466C154.874 13.3455 154.974 12.9442 155.125 12.6933C156.832 10.3854 156.48 7.57585 156.932 4.96695C157.836 3.21096 158.79 1.45497 159.643 -0.200684C160.446 -0.100341 161.199 -0.200684 161.701 0.0501723C162.706 0.602055 162.906 1.80616 162.655 2.70924C161.651 5.87003 160.848 9.08098 160.446 12.3421C160.346 13.2954 159.593 14.1483 159.091 15.1517C158.94 17.3592 158.74 19.7173 158.589 21.8746C157.384 24.4334 156.28 26.8416 155.075 29.4003C154.924 30.8553 154.824 32.5611 154.673 34.2167C154.221 35.0696 153.719 35.9727 153.117 37.1768C152.966 39.1837 152.816 41.4916 152.665 43.8496C152.314 45.4049 150.858 46.7094 151.36 48.5155C151.611 48.7162 151.812 49.0172 152.113 49.1678C154.924 50.3719 158.037 49.1678 160.898 50.6227C163.659 52.0275 166.772 51.5258 169.784 51.7766C172.445 51.9773 174.603 54.1347 177.465 53.7333C179.172 53.4825 180.527 54.7368 182.134 55.088C184.092 54.1849 185.397 52.5292 186.301 50.8234C188.71 46.2578 192.526 43.0469 196.19 39.9363C199.002 40.6387 199.002 40.6386 198.801 44.251C196.391 48.3148 192.174 50.8234 189.514 54.8873V56.8941C193.982 58.1986 198.098 60.1051 201.813 63.015C204.122 64.8212 207.084 65.7744 209.845 67.1792C211.703 65.9751 213.611 64.771 215.468 63.5167C217.125 62.3628 218.581 60.8075 220.338 60.0549C222.597 59.1518 224.103 57.2955 226.161 56.1917C227.215 55.6398 228.772 56.5931 228.922 57.9979C228.922 58.2989 228.872 58.6501 228.822 58.9511C227.065 62.0617 223.249 62.3628 220.89 64.8212C218.882 66.9283 216.221 68.4837 214.012 70.1393C213.711 70.942 213.862 71.5441 214.564 71.9956C216.171 73.1496 217.928 74.153 219.434 75.4073C220.99 76.6616 222.296 78.2169 223.752 79.6217C225.207 81.0264 226.613 82.3811 228.069 83.7859C229.173 83.7859 230.278 84.0869 231.081 83.7357C233.24 82.8326 235.248 81.6285 237.306 80.6251C239.113 79.722 240.82 78.5179 242.728 78.1667C245.087 77.7653 247.146 76.7117 249.355 76.1097C250.66 75.7585 251.965 76.0093 252.869 77.2636C253.12 78.267 253.07 79.2705 252.317 80.023C251.614 80.7254 250.811 81.4278 249.957 81.8292C245.489 83.9865 240.921 86.0436 236.402 88.2009C235.147 88.803 234.194 89.6559 233.591 91.161C237.306 94.8737 240.117 99.3891 243.079 103.804C246.041 108.219 249.154 112.534 251.262 119.909C251.212 119.257 251.363 120.913 251.564 122.618C252.467 124.274 253.421 126.03 254.274 127.585C256.383 128.037 257.588 126.532 259.445 126.03C262.809 125.779 266.423 125.428 269.837 126.331C271.594 127.886 272.096 129.843 273.05 131.749C272.247 134.158 271.444 136.616 270.691 139.024C268.783 140.479 266.875 141.834 265.018 143.239C263.462 144.443 261.102 144.393 259.947 146.5C259.847 146.701 259.596 147.002 259.596 147.303C259.345 152.32 259.144 157.287 258.943 162.354C258.491 163.508 257.99 164.762 257.487 165.966C257.387 170.03 257.236 173.994 257.136 178.108C255.429 180.616 255.53 183.777 254.174 186.486C252.969 188.844 252.718 191.554 251.564 194.012C250.911 195.417 250.861 197.173 250.058 198.678C248.15 202.19 246.694 205.902 244.686 209.364C243.531 211.371 241.322 212.726 240.268 214.783C238.812 217.542 236.804 219.649 234.696 221.807C232.838 223.713 231.031 225.62 228.571 226.874C226.864 227.777 225.458 229.383 224.053 230.787C217.526 237.059 209.695 241.524 202.064 246.19C199.855 247.545 197.345 248.397 194.634 249C192.074 249.551 189.765 251.157 187.003 252.461C182.837 252.21 179.172 254.719 175.256 256.475C172.947 256.626 170.587 256.826 168.579 256.927C167.374 257.529 166.471 257.93 165.366 258.482C163.308 258.632 160.948 258.783 158.639 258.933C157.434 259.485 156.229 259.987 154.924 260.539C152.012 260.689 149 260.89 146.34 261.041C144.633 262.094 144.834 263.399 145.135 265.205C148.046 268.315 151.209 271.777 153.82 274.637C155.276 277.396 155.276 279.754 156.531 281.862C157.484 283.517 157.384 285.675 158.338 287.531C159.342 289.588 159.744 291.946 160.798 295.408V308.202C160.798 308.452 160.798 308.804 160.697 309.105C160.346 310.058 159.944 310.961 159.392 312.215C159.242 314.874 159.091 317.834 158.94 320.744C156.982 323.303 157.284 326.564 155.878 329.223C154.673 331.531 153.167 333.789 152.866 336.548C152.765 337.501 152.063 338.354 151.661 339.257C150.105 342.97 147.494 346.031 145.386 349.442C144.532 350.797 143.076 351.75 141.922 352.854H136.751C134.14 351.8 132.383 349.894 131.078 347.486C131.179 346.833 131.279 346.181 131.48 345.579C131.781 344.626 132.333 343.773 132.534 342.82C132.685 342.067 132.132 341.515 131.53 341.666C130.576 341.917 129.723 342.669 128.819 342.82C127.514 343.02 126.158 342.87 124.803 342.87C122.142 341.967 120.435 339.91 119.08 337.652C118.829 336.147 119.833 335.143 120.234 333.889C120.686 332.635 120.837 331.33 121.188 329.976C122.192 328.722 123.196 327.417 124.2 326.113C123.196 324.206 121.188 325.36 119.582 324.256C118.628 323.504 117.323 322.45 116.017 321.447C114.361 323.002 113.959 325.511 111.951 326.414C110.294 326.966 109.29 325.761 108.035 325.561C104.119 324.808 100.656 322.601 96.5389 322.651C95.0329 322.651 93.828 320.744 91.8199 321.096C91.1673 321.647 90.4143 322.3 89.8118 322.852C88.2556 324.959 88.9082 327.517 87.4523 329.574C86.1973 331.431 86.3981 333.99 85.2434 336.097C84.4904 337.451 84.7414 339.358 84.5406 341.164C82.7333 344.877 80.8758 348.74 78.9681 352.754C79.42 356.817 76.8094 360.229 76.2572 364.142C75.2532 365.547 74.8515 367.102 74.6005 368.808C74.3997 370.012 73.7471 371.166 73.2451 372.521C76.3576 375.832 80.8256 376.635 84.4904 378.843C87.5025 378.993 90.4645 379.093 93.326 379.194C94.33 379.746 95.2337 380.247 96.3381 380.849H109.29C110.043 380.448 110.947 379.996 112.353 379.344C114.813 379.194 117.774 379.043 121.188 378.843C122.594 378.09 124.351 377.187 126.108 376.284C126.761 374.327 128.568 373.073 128.869 371.016C129.622 371.116 130.124 370.815 130.375 370.163C130.626 369.511 130.375 369.26 129.823 369.561C129.221 369.912 128.97 370.464 129.02 371.166L128.719 371.066ZM80.5244 302.833C80.2232 302.934 79.7212 302.883 79.5706 303.084C78.1649 304.89 77.5123 307.148 76.3576 309.105C74.5001 312.265 74.1487 315.978 72.3916 319.189C70.3333 322.952 68.4759 326.815 66.6184 330.528C66.4678 332.284 66.3674 333.939 66.3172 334.943C64.7609 338.204 63.5058 340.913 62.2006 343.572C61.1965 345.629 59.9415 347.636 59.0378 349.743C58.1342 351.85 58.0338 354.208 56.7787 356.266C56.3269 357.018 56.3771 358.222 56.4775 359.175C56.5779 359.978 57.1301 360.279 57.7828 359.978C59.9415 355.663 62.1002 351.248 64.3091 346.833C65.5139 344.475 66.7188 342.117 67.9236 339.759C67.6726 336.598 70.2329 334.291 70.3835 331.28C72.1406 327.417 72.8435 323.102 74.952 319.34C75.956 317.634 76.96 315.878 77.6127 314.021C78.4661 311.563 79.1187 309.004 80.1228 306.546C80.5746 305.392 80.2734 303.937 80.3236 302.582C82.6329 301.679 82.4823 300.927 81.3778 299.221C80.3236 300.174 80.5244 301.529 80.4742 302.733L80.5244 302.833ZM142.625 274.687C142.675 273.985 142.424 273.483 141.821 273.182C141.721 273.182 141.269 273.583 141.319 273.684C141.47 274.386 142.022 274.637 142.725 274.537V278.45C143.779 280.607 144.783 282.614 145.787 284.721C146.741 286.778 148.147 288.685 148.448 291.143C146.44 293.552 147.394 296.763 146.39 299.773C145.285 301.127 144.08 302.683 142.825 304.188C142.675 305.191 142.574 306.145 142.424 307.148C141.269 309.305 139.562 310.359 137.102 311.011C134.291 311.814 131.43 312.516 128.568 313.62C127.514 314.774 126.409 315.978 125.305 317.232C125.204 317.383 125.204 317.784 125.305 317.935C125.506 318.135 125.907 318.386 126.158 318.336C130.526 316.931 134.492 314.573 138.859 312.466C140.265 312.516 141.872 312.617 143.177 312.667C145.034 314.122 145.085 315.727 144.482 317.333C144.03 318.537 142.725 319.34 142.725 320.794C141.771 320.895 140.767 320.995 139.512 321.146C136.149 324.557 132.634 328.019 129.17 331.581C128.618 332.133 128.769 332.886 129.723 334.24C130.727 333.337 131.731 332.484 132.634 331.581C135.898 328.32 139.11 325.009 142.323 321.647C142.524 321.447 142.474 320.995 142.574 320.694C143.578 320.845 144.532 320.995 145.436 321.146C146.54 322.199 146.892 323.403 146.641 325.009C146.038 326.313 145.336 327.818 144.583 329.273C143.679 331.029 142.876 332.836 141.872 334.541C140.366 337.15 140.566 340.361 138.759 342.82C138.608 343.07 138.608 343.472 138.558 343.773C138.508 344.726 138.659 345.679 139.562 346.231C140.064 345.88 140.817 345.579 141.119 345.077C143.478 341.365 146.992 333.137 148.699 329.073C150.105 325.711 150.607 322.099 152.464 318.788C152.615 315.928 152.765 312.968 152.866 310.259C153.418 309.105 153.87 308.202 154.422 307.048V296.963C152.966 293.752 151.761 291.043 150.757 288.835C150.557 286.979 150.406 285.675 150.356 285.022C148.649 280.708 146.842 277.246 143.478 274.838C143.227 274.687 142.825 274.737 142.524 274.687H142.625ZM52.8629 80.7254C49.7002 83.8862 46.6379 86.9968 43.5755 90.0573C41.4168 94.3218 37.6517 97.1816 34.5391 100.643C33.8865 101.396 33.0833 102.048 32.531 102.851C29.9707 106.714 27.0088 110.326 25.0007 114.541C24.1472 116.347 24.2978 118.404 23.1432 120.21C21.8881 122.117 20.7837 124.324 20.4323 126.532C20.0307 128.89 18.7756 130.846 18.1732 133.104C17.1189 136.917 15.412 140.58 14.659 144.393C13.8558 148.256 14.1068 152.37 13.906 156.484C13.4542 157.588 12.9521 158.792 12.5003 159.946V180.365C13.2031 182.272 13.8056 183.476 14.0566 184.78C14.7092 188.042 16.2655 191.002 17.2193 194.162C18.0728 197.123 20.7837 199.079 21.8881 201.738C23.0428 204.598 25.9545 206.204 26.7076 209.264C28.9667 211.722 31.1254 214.281 33.4347 216.639C39.0573 222.359 44.429 228.279 51.3569 232.493C53.9172 235.253 57.1301 236.858 60.4937 238.464C62.9034 239.618 65.2127 240.922 67.5722 242.126C75.1528 245.889 75.454 245.989 87.1511 248.849C89.8118 250.655 92.8742 250.454 95.8361 250.454C96.4385 250.454 97.041 250.053 97.6434 249.802C98.8984 247.494 100.103 245.187 101.308 242.979C102.111 242.828 102.714 242.728 103.668 242.578C105.475 244.283 107.383 246.14 109.24 247.946C112.202 246.692 113.357 243.38 116.519 242.327C117.272 242.427 118.277 242.527 119.331 242.678C119.833 243.531 120.335 244.384 120.887 245.136C121.69 246.19 122.594 247.193 123.347 248.046C124.251 248.046 124.853 247.996 125.455 247.946C126.51 246.943 126.208 245.437 126.761 244.233C127.614 242.427 128.719 240.721 131.078 240.671C133.438 241.223 134.492 243.882 137.153 244.283C140.014 243.531 140.717 239.668 143.88 239.015C144.382 239.417 144.934 239.818 145.386 240.32C145.838 240.822 146.139 241.424 146.691 242.277C146.54 243.28 146.44 244.635 146.038 245.839C145.587 247.093 144.884 248.297 145.034 249.652C145.185 250.555 145.637 251.458 145.888 252.261C146.741 252.361 147.444 252.562 148.097 252.562C151.109 252.461 154.121 252.311 156.43 252.261C158.639 251.558 160.145 250.856 161.802 250.555C163.76 250.204 165.667 250.003 167.575 249.2C169.684 248.297 172.294 248.598 174.252 247.545C176.812 246.24 179.624 247.043 181.983 245.889C183.841 244.986 185.598 244.334 187.656 244.334C190.367 244.334 192.526 242.427 195.237 241.976C197.094 241.675 199.102 240.571 200.508 239.266C203.972 236.106 208.289 234.099 211.603 230.787C212.807 229.583 214.163 228.73 215.769 228.128C217.627 227.426 219.284 226.272 221.543 225.018C224.655 221.857 228.119 218.245 231.633 214.682C233.491 211.12 236.453 208.311 238.662 204.999C240.318 202.541 241.573 199.782 242.879 197.123C244.184 194.463 245.389 191.704 246.644 188.995C246.794 188.694 246.794 188.343 246.945 187.791C247.045 186.035 247.196 184.028 247.296 181.87C249.555 178.81 248.702 174.947 249.355 171.786C250.007 170.181 250.509 168.977 250.911 168.073V151.918C250.309 150.463 249.756 149.259 249.355 148.256C249.204 143.289 249.104 138.623 248.953 134.308C248.3 132.402 247.497 130.846 247.296 129.241C246.995 126.883 246.443 124.726 245.288 122.618C243.23 118.855 241.423 114.892 239.515 111.029C238.913 109.825 238.461 108.52 237.607 107.567C235.047 104.808 233.993 101.245 231.583 97.5328C227.667 93.5692 223.049 89.2043 218.781 84.5384C215.117 80.5247 210.699 77.6148 206.382 74.5544C204.524 73.2499 202.516 71.9956 200.558 70.7915C199.203 69.9386 197.395 69.8383 195.889 69.2362C194.333 68.6342 192.676 68.0321 191.471 66.9785C188.158 64.0184 184.042 62.6638 180.226 60.5566C179.674 60.2556 178.971 60.1552 178.168 59.9044C176.361 59.804 174.352 59.6535 173.951 59.6535C169.031 58.048 165.467 57.1951 162.505 56.0914H146.289C144.783 56.6934 143.578 57.1951 142.625 57.5965C141.37 57.145 140.416 56.7938 139.512 56.4426C138.91 56.6934 138.257 56.8941 137.655 57.145C136.751 56.7938 135.797 56.3924 134.944 56.0412H122.092C120.987 56.5931 120.134 57.0446 118.979 57.6467C115.566 57.7972 111.901 57.9477 108.387 58.0982C106.981 58.6501 105.726 59.6034 104.521 59.5532C101.007 59.3525 98.0952 61.1587 94.9325 62.0116C91.4183 63.015 87.9543 64.1689 84.4904 64.0184C81.5285 65.3229 78.9179 66.828 76.0564 67.6809C69.5301 69.6376 63.8572 72.8485 59.7407 77.0629C57.1803 78.3674 55.3731 79.2705 52.8127 80.5247L52.8629 80.7254ZM120.736 276.644H112.152C109.541 279.905 108.085 283.568 106.63 287.18C106.379 287.782 106.479 288.484 106.379 289.387C105.676 290.24 104.873 291.294 103.969 292.297C102.864 293.552 101.76 294.756 100.806 295.809C100.605 297.114 100.505 298.117 100.405 298.569C99.5511 301.328 97.2418 302.482 96.4385 304.84C95.7357 306.997 94.079 308.904 94.7317 311.412C95.2337 311.814 95.7357 312.165 96.2879 312.617C98.5972 312.717 100.907 312.817 103.065 312.918C104.119 313.52 104.973 314.021 105.927 314.573C107.533 314.674 109.19 314.774 110.847 314.874C111.449 315.175 112.001 315.577 112.604 315.777C113.507 316.129 114.411 316.329 115.465 316.68C117.574 314.423 119.632 312.265 121.69 310.058C122.594 309.054 121.791 310.66 121.59 309.305C120.034 308.904 118.477 308.503 116.821 308.051C115.465 306.646 114.06 305.241 113.005 304.188C112.302 302.432 111.8 301.228 111.248 299.873C111.8 297.816 112.403 295.659 113.005 293.552C114.712 290.692 117.875 290.19 120.435 288.735C124.753 288.284 129.07 288.183 133.086 288.735C135.396 289.939 137.454 290.993 139.512 292.046C141.018 290.692 140.466 289.136 139.964 287.481C139.01 286.277 138.006 284.922 137.052 283.718C136.199 281.811 136.55 279.704 135.245 277.948C133.789 275.992 135.195 273.333 133.638 271.175C132.885 272.179 132.183 273.132 131.279 274.336C130.174 274.386 128.869 274.486 127.564 274.587C126.259 274.687 124.903 274.737 123.899 274.788C122.745 275.44 121.841 275.941 120.686 276.594L120.736 276.644ZM131.731 249.401C130.124 251.358 128.869 253.465 128.618 256.074C128.518 257.177 127.915 257.83 126.861 258.582H122.243C121.339 259.285 120.536 259.837 119.682 260.439C118.829 262.195 117.975 263.951 117.122 265.656C117.624 266.258 118.226 266.509 118.929 266.208C121.038 265.255 123.096 264.252 125.154 263.298C125.757 263.047 126.359 262.847 127.062 262.596C128.618 262.546 130.275 262.496 131.932 262.345C132.584 262.345 133.187 262.044 133.588 261.944C135.094 261.291 135.797 260.188 136.249 258.883V255.923C134.743 253.766 133.287 251.608 131.731 249.401ZM119.23 299.923C121.69 300.726 124.1 301.579 127.162 302.582C130.124 302.482 133.689 302.432 137.303 302.281C137.554 302.281 137.755 301.93 137.956 301.729C137.052 299.422 135.044 298.268 132.986 296.863C130.576 296.562 127.915 296.712 125.556 295.358C123.447 296.813 120.335 296.763 119.23 299.873V299.923ZM264.365 130.746C262.307 132.552 258.943 131.398 257.236 134.208C257.487 135.964 256.734 138.021 258.391 139.626C260.751 139.225 263.562 138.121 264.717 136.967C265.319 135.713 265.972 134.258 266.674 132.753C265.821 132 265.068 131.398 264.365 130.746ZM7.7311 130.044H10.442C12.2493 128.84 12.0987 127.184 11.8477 125.478C9.48818 123.722 7.12867 123.622 4.66876 125.227C4.21694 127.786 5.97402 128.84 7.7311 130.044ZM41.4168 387.572C40.8646 387.924 40.3124 388.275 39.8104 388.676C39.5593 388.877 39.4087 389.178 39.2079 389.479C38.7059 390.131 38.8565 390.633 39.7099 390.934C40.0112 391.034 40.4128 390.934 40.6638 390.833C41.9691 390.181 42.0695 389.83 41.3666 387.673L41.4168 387.572ZM113.959 255.622L113.457 255.171L113.357 255.923L113.959 255.622ZM107.081 255.572L107.684 256.023L107.784 255.271L107.081 255.572ZM101.107 255.522L101.66 255.973L101.76 255.221L101.107 255.522ZM106.027 259.636C105.877 259.435 105.676 259.034 105.626 259.034C104.923 259.335 104.873 259.736 105.525 260.138C105.525 260.138 105.826 259.786 106.027 259.636ZM115.616 251.006L115.264 251.709H115.867C115.867 251.759 115.666 251.006 115.666 251.006H115.616ZM99.5511 260.99L99.1495 261.743H99.8021C99.8021 261.793 99.5511 260.99 99.5511 260.99ZM87.5527 287.13C87.3519 287.28 87.0005 287.531 87.0507 287.631C87.2515 288.484 87.6029 288.484 87.9543 287.732C88.0045 287.631 87.7033 287.33 87.5527 287.13ZM109.642 263.047L109.29 263.8H109.893C109.893 263.85 109.642 263.047 109.642 263.047ZM105.425 274.085L105.776 273.433H105.224C105.224 273.383 105.425 274.085 105.425 274.085ZM111.6 259.034L111.248 259.786H111.851C111.851 259.837 111.6 259.034 111.6 259.034Z" fill="#A9452D"/>
<path d="M51.9588 420.184C50.4527 422.291 49.0972 424.097 46.7879 424.95C46.1353 424.799 45.3823 424.9 44.9304 424.549C43.9264 423.746 43.073 422.742 42.3199 422.04C41.7175 417.424 42.2195 413.16 42.3701 408.795C42.8721 407.992 43.324 407.139 43.9264 406.387C44.9806 405.132 46.0851 403.928 47.6414 403.276C49.549 403.125 50.7539 404.33 51.6073 405.684C52.6114 407.34 53.3142 409.196 54.017 410.802C54.1677 412.307 54.1175 413.561 53.4648 414.815C53.013 415.668 52.762 416.621 52.4608 417.575C52.2098 418.528 52.009 419.481 51.8584 420.184H51.9588ZM47.2397 416.421C48.796 414.815 47.9928 412.859 48.043 411.052C48.043 410.751 47.3903 410.4 47.0891 410.049C46.9385 410.3 46.5871 410.601 46.5871 410.852C46.6875 412.708 45.8843 414.665 47.2397 416.371V416.421Z" fill="#A9452D"/>
<path d="M73.6975 228.229C72.5429 227.376 71.338 226.021 69.8319 225.419C64.5607 223.161 60.3939 219.248 55.7251 216.137C53.8174 214.883 52.0603 213.127 50.7551 211.271C47.6927 206.956 44.8312 202.441 42.8231 197.524C41.9195 195.417 41.4676 193.109 40.5138 190.048C39.9114 181.971 40.1122 172.94 40.2628 164.21C41.066 162.304 42.3211 161.25 44.028 160.347C46.8393 160.247 49.8012 160.096 52.6628 159.996C53.717 159.494 54.6206 159.093 55.9259 158.441C65.866 157.889 76.2076 158.34 86.8003 157.939C87.8545 157.487 89.0594 156.986 90.3145 156.484C94.6319 156.283 98.9493 156.083 103.116 155.882C104.22 155.38 105.124 154.979 106.128 154.477C110.345 154.276 114.663 154.076 119.03 153.875C119.934 153.474 120.888 153.022 122.293 152.37C126.109 152.219 130.426 152.019 134.894 151.868C135.999 151.417 137.254 150.865 138.509 150.363C143.479 150.213 148.499 150.012 153.168 149.861C154.423 149.309 155.326 148.858 156.481 148.356C161.953 148.206 167.626 148.055 173.148 147.855C174.202 147.353 175.106 146.951 176.462 146.299C183.691 146.149 191.372 145.948 199.053 145.848C200.408 145.848 201.663 146.149 202.818 147.704C203.571 152.972 203.019 158.641 202.968 164.11C202.466 165.214 202.065 166.117 201.412 167.572C201.362 168.324 201.161 169.629 201.111 170.983C201.01 172.99 200.759 174.897 199.806 176.753C199.053 178.208 199.153 180.064 198.4 181.469C196.994 184.128 197.195 187.389 195.287 189.848C195.237 192.657 193.581 194.865 192.526 197.273C191.321 200.033 189.815 202.591 188.109 205.852C185.749 209.013 181.984 211.923 179.675 216.137C178.771 217.793 176.964 219.148 175.307 220.151C173.55 221.155 172.094 222.559 170.387 223.563C168.078 224.917 166.07 226.673 163.76 228.028C160.899 229.684 157.786 230.888 154.624 232.343C152.063 232.493 149.403 232.644 146.491 232.794C145.487 233.246 144.282 233.748 142.977 234.35C128.368 234.801 113.608 235.002 98.648 234.45C97.5938 233.998 96.3889 233.497 95.1339 232.945C91.9711 232.242 88.6076 232.744 85.4448 231.189C82.8343 229.884 79.4708 230.737 76.9105 228.73C76.2076 228.179 74.9526 228.379 73.7477 228.229H73.6975ZM162.756 220.452C163.71 220.402 164.614 220.302 165.718 220.251C166.572 219.399 167.425 218.496 168.429 217.492C167.425 216.539 166.572 215.686 165.568 214.682C164.513 215.786 163.66 216.689 162.756 217.643V220.553C162.003 220.452 161.451 220.703 161.25 221.456C161.25 221.606 161.652 222.058 161.803 222.058C162.505 221.857 162.807 221.305 162.706 220.553L162.756 220.452ZM113.106 163.107C117.373 168.274 121.139 172.087 125.657 175.75C126.109 176.101 126.912 175.95 127.514 176.051C128.016 175.649 128.769 175.348 129.071 174.847C131.129 171.134 134.041 167.873 135.798 163.959C136.4 162.655 136.651 161.551 135.145 160.447H124.552C123.147 161.05 121.942 161.551 120.787 162.053C118.227 162.655 115.466 161.551 113.106 163.107ZM159.292 171.535C159.945 171.234 160.698 171.134 160.999 170.733C163.71 166.97 165.266 162.504 168.279 158.842C168.831 158.19 168.58 156.935 168.68 156.133C167.777 154.628 166.672 154.377 165.266 155.079C164.363 155.531 163.459 155.882 162.756 156.133C159.142 156.233 155.828 156.333 152.013 156.484C151.009 157.889 148.599 157.487 147.344 159.494C151.109 163.709 155.377 167.421 159.292 171.535ZM78.7679 165.314C78.7679 165.615 78.6675 166.016 78.7679 166.267C80.525 169.478 83.7882 173.04 89.4108 177.706C89.8626 178.058 90.6157 178.007 91.3687 178.208C92.0715 177.556 92.925 177.004 93.4772 176.251C95.6861 172.94 96.3889 169.027 97.7444 165.364C97.7946 165.214 97.393 164.913 97.1922 164.712C90.3647 164.11 85.5955 164.11 79.6214 164.812C79.3202 164.812 79.0692 165.164 78.8181 165.364L78.7679 165.314ZM185.849 167.672C186.402 167.321 187.104 167.07 187.406 166.568C190.117 162.053 192.426 157.287 194.534 152.47C194.635 152.219 194.534 151.818 194.384 151.567C194.233 151.316 193.882 150.965 193.681 151.015C192.426 151.366 191.121 152.169 189.916 152.069C185.799 151.768 182.185 153.775 178.269 154.427C177.215 154.577 177.014 155.782 177.215 157.136C178.57 158.691 180.076 160.447 181.582 162.203C183.088 163.959 183.54 166.468 185.799 167.672H185.849ZM61.7494 166.267C60.2433 166.267 57.934 166.167 55.6749 166.267C53.4158 166.418 51.0563 165.766 48.8976 167.07C49.7008 168.977 51.3575 170.181 52.713 171.585C54.7713 173.743 56.9299 175.8 59.0886 177.757C59.4903 178.108 60.2935 178.007 61.0465 178.158C61.6992 177.556 62.6028 177.004 63.0546 176.201C64.7615 173.04 66.3178 169.829 67.9242 166.619C68.0749 166.368 68.0247 165.916 67.9242 165.665C67.5728 165.013 66.9704 164.662 66.3178 164.812C65.0627 165.164 63.8579 165.615 61.7996 166.267H61.7494ZM131.581 221.004C130.376 221.606 129.472 222.509 128.82 223.663C128.368 224.516 128.067 225.469 127.514 226.272C126.812 227.326 125.958 228.329 124.753 229.884C128.117 230.286 130.878 230.587 133.639 229.884C134.894 229.232 135.999 228.63 136.149 227.175C134.643 225.068 133.99 222.359 131.581 220.954V221.004ZM117.625 229.734C116.771 227.125 116.319 224.265 113.458 222.81C111.55 224.065 109.944 225.519 108.889 227.878C109.793 228.63 110.797 229.433 111.45 229.985C113.809 230.286 115.717 230.637 117.625 229.734ZM152.364 225.469C152.565 222.961 151.009 221.757 149.453 220.603C148.85 220.703 148.198 220.803 147.545 220.904C146.792 222.258 145.989 223.663 145.236 225.068C145.085 225.319 144.985 225.67 144.935 225.971C144.784 226.724 144.935 227.376 145.537 227.627C146.089 227.878 146.842 228.128 147.344 227.928C149.101 227.175 150.758 226.222 152.364 225.419V225.469ZM93.427 220.653C90.9671 221.355 90.9169 221.355 90.6659 222.961C90.5655 223.613 90.5655 224.265 90.5153 224.968C91.2181 226.573 92.3226 227.777 94.0796 228.028C94.6319 228.128 95.4853 227.928 95.8367 227.526C96.1881 227.175 96.4391 226.222 96.2383 225.77C95.3849 224.014 94.3307 222.309 93.427 220.603V220.653Z" fill="#A9452D"/>
<path d="M158.689 116.146C158.086 114.992 157.484 113.838 156.882 112.684C156.882 110.326 158.538 109.222 160.546 108.018H165.215C167.474 109.122 168.93 110.928 170.235 112.985C170.838 114.541 170.838 116.096 169.984 117.701C169.231 119.156 168.529 120.712 167.976 121.916C165.968 124.274 163.308 124.826 160.848 125.779C158.639 125.127 156.43 124.424 153.568 123.571C152.414 122.417 150.757 120.812 149.351 119.457C149.05 118.404 148.799 117.752 148.699 117.099C148.247 114.189 148.849 111.079 146.992 108.369C146.691 107.918 146.741 107.015 146.891 106.413C147.644 103.904 148.749 101.496 149.201 98.837C151.108 96.1277 153.016 93.4185 154.773 90.9601C157.584 89.9567 160.044 89.1038 163.157 88H170.637C172.695 88.9031 174.804 89.8563 176.36 90.5587C179.272 93.2178 181.682 95.5257 183.338 97.0308C184.794 99.7902 185.949 101.496 186.601 103.352C187.254 105.209 187.405 107.216 188.258 109.072C189.111 110.878 189.162 113.186 188.258 114.892C186.953 117.4 187.103 120.059 186.802 121.514C184.945 126.381 182.886 129.793 179.272 131.95C175.707 132.151 175.657 132.151 175.055 129.492C175.406 128.94 175.707 128.338 176.109 127.836C178.82 124.775 180.678 121.263 180.778 117.099C180.878 114.741 182.886 112.935 182.485 110.376C182.133 108.068 180.477 106.162 180.577 103.704C180.577 103.403 180.326 103.102 180.175 102.8C177.364 98.9875 173.9 95.927 168.88 94.0205H160.295C158.789 95.325 157.283 96.6294 155.677 98.0342C154.823 99.6899 153.92 101.496 152.865 103.503V110.326C153.769 112.032 154.723 113.788 155.677 115.544C156.731 115.694 157.735 115.845 158.689 115.945C158.84 117.852 160.346 118.554 161.701 119.407C164.462 118.002 165.265 115.945 164.061 113.035C163.559 111.831 164.312 113.637 163.257 112.785C161.701 113.888 160.145 114.942 158.538 116.046L158.689 116.146Z" fill="#A9452D"/>
<path d="M78.3164 107.968C80.0735 104.557 81.429 101.898 82.8346 99.1383C86.8006 96.2283 91.5196 94.4723 95.9374 92.2146C97.5941 91.9638 99.1504 92.2146 100.707 93.0174C103.016 94.2717 105.476 95.3252 108.588 96.7802C109.944 98.185 111.801 100.142 113.458 101.848C114.462 103.854 115.366 105.661 116.42 107.868V116.347C116.269 117.752 114.864 119.708 114.412 122.016C113.96 124.224 112.655 126.281 111.4 128.238C110.195 130.194 108.639 131.95 107.333 133.606C105.677 134.459 104.221 135.211 102.715 135.964C102.363 135.964 102.062 136.114 101.711 136.064C101.058 136.014 100.355 136.014 99.803 135.713C98.7487 135.211 98.7487 134.208 98.8993 133.154C99.9034 131.298 101.61 130.345 103.418 129.442C103.669 129.191 103.92 128.99 104.07 128.689C106.179 124.575 108.237 120.411 110.145 116.548V109.975C109.241 108.069 108.237 105.962 107.283 103.955C104.12 101.296 100.154 100.192 96.6402 98.3857C95.8872 97.9843 94.6824 98.3355 93.6783 98.3355C90.616 100.493 88.1059 103.152 85.2443 106.062C84.4913 107.868 83.5374 109.975 82.7844 112.133C82.5334 112.835 83.0354 113.337 83.6379 113.387C85.5957 112.383 85.9472 110.226 87.2524 108.57C88.6079 107.918 90.0637 107.216 91.3188 106.614C92.8249 107.216 94.0799 107.718 95.6362 108.37C97.3431 109.423 98.7989 111.23 99.9536 113.186C100.054 113.889 100.154 114.541 100.305 115.494C100.054 116.196 99.6524 117.1 99.3512 118.003C98.2969 121.414 96.1884 123.772 92.7747 124.976C92.1722 125.177 91.62 125.578 90.7666 126.03H86.0476C83.3868 124.625 80.2743 124.023 78.3666 120.411C77.7642 116.799 78.1658 112.484 78.1658 107.968H78.3164ZM91.1682 119.809C94.833 116.497 94.9836 115.946 93.1261 112.434C92.2726 112.684 91.118 112.735 90.616 113.337C89.0597 115.093 86.901 115.795 84.9933 116.949C86.1982 119.809 88.3569 120.561 91.2184 119.859L91.1682 119.809Z" fill="#A9452D"/>
</g>
<defs>
<clipPath id="clip0_19_639">
<rect width="273" height="425" fill="white"/>
</clipPath>
</defs>
</svg>
