<svg width="191" height="79" viewBox="0 0 191 79" fill="none" xmlns="http://www.w3.org/2000/svg">
<g clip-path="url(#clip0_19_1788)">
<path d="M31.3062 12.0515C29.5843 13.8012 27.8966 14.6661 25.9421 15.2306C23.355 13.0646 21.7452 9.54963 17.6575 9.75412C14.2541 11.3014 13.4098 14.2968 13.7878 17.6553C14.1222 20.6298 15.1234 23.4176 17.1392 25.8214C20.2051 29.4773 23.0507 33.3178 26.048 37.0331C30.4068 42.4375 32.6563 48.7956 34.3004 55.4093C35.367 59.6994 34.3585 63.7872 32.2284 67.4931C30.3352 70.788 27.1146 72.3738 23.4547 73.0822C20.8781 73.5809 18.2796 73.4224 15.7549 72.9612C11.4324 72.1704 7.32592 70.6794 3.69928 68.1003C2.73342 67.4138 1.85896 66.5875 1.00422 65.7601C0.586725 65.3574 0.311507 64.8055 -0.00109863 64.36C0.105873 62.7627 0.592956 61.5816 2.61503 61.4794C3.81768 62.1648 5.2135 62.9139 6.56258 63.7392C11.395 66.695 16.539 67.394 22.0734 66.0085C22.842 65.4482 23.7092 64.939 24.4258 64.2671C26.2619 62.5488 27.1582 60.388 27.1063 57.8569C27.0564 55.4552 26.7334 53.1087 25.9763 50.8061C24.2087 45.4308 21.4098 40.6524 17.8548 36.3017C16.7228 34.9161 15.5098 33.5963 14.3123 32.265C10.4904 28.0187 8.23466 23.0399 6.96243 17.4696C5.89479 12.7944 8.68851 7.21361 12.258 5.04453C18.1113 1.48677 24.0467 2.83058 27.8364 7.28978C28.4803 8.04723 29.0962 8.82973 29.6871 9.62892C30.1576 10.2654 30.5709 10.9446 31.3062 12.0515Z" fill="#A9452D"/>
<path d="M88.834 69.0289C87.1993 69.6111 86.0351 69.5641 84.9104 69.2198C83.9788 68.55 83.8043 67.5599 83.7503 66.5698C83.4252 60.6061 83.1324 54.6414 82.8249 48.6777C82.7533 47.2973 82.6629 45.917 82.6037 44.9144C81.8425 43.269 80.3843 43.5142 79.4683 42.8528C78.8639 42.1861 78.7413 41.4641 79.1516 40.6002C79.8921 40.0858 80.6866 39.536 81.6265 38.8839C81.7293 38.187 81.9474 37.4128 81.9401 36.6418C81.9089 33.2572 81.8529 29.8727 81.7282 26.4902C81.5735 22.2887 81.8529 18.1268 82.7637 14.0245C83.15 12.2811 83.6444 10.5575 84.1761 8.85268C85.2905 5.27822 87.4039 2.49983 91.1116 0.58845C91.5166 0.499767 92.2821 0.305707 93.0568 0.166944C97.3191 -0.591557 100.355 1.32609 102.603 4.74508C103.244 5.71955 103.647 6.88391 103.983 8.01384C104.132 8.51359 103.844 9.14585 103.739 9.81985C103.026 10.161 102.33 10.4938 101.774 10.7599C101.202 10.5596 100.747 10.5293 100.486 10.2873C99.3245 9.21471 98.2756 8.01488 97.0771 6.98824C95.7903 5.88544 94.0736 5.93239 92.6539 6.82861C90.7211 8.04827 89.3876 9.7875 88.6845 11.8909C88.0582 13.7616 87.5753 15.7408 87.4268 17.7022C86.9594 23.8631 87.028 30.0375 87.4444 36.2036C87.4829 36.7774 87.7539 37.3356 87.8516 37.6716C88.7354 39.0352 90.1935 38.5574 90.6442 38.8526C91.8469 39.8699 91.8417 40.6012 91.3879 41.6738C90.4698 42.2747 89.3388 43.0145 88.1725 43.7782C87.4839 46.6213 88.3231 49.3767 88.3511 52.1374C88.3812 55.1223 88.5661 58.1063 88.645 61.0923C88.7167 63.7987 89.5776 66.5374 88.8361 69.0341L88.834 69.0289Z" fill="#A9452D"/>
<path d="M53.3174 37.5724C56.9077 39.6664 59.1479 42.3467 60.1989 45.9316C60.5271 47.0511 60.767 48.2916 60.6424 49.4319C60.2301 53.2276 59.0731 56.8073 56.7104 59.8632C53.52 63.9885 49.3148 65.6317 44.1688 64.7564C41.9213 64.3745 40.1444 63.2269 38.761 61.4115C37.7879 60.1334 36.9892 58.7416 36.6143 57.2006C35.5591 52.8645 35.6069 48.5347 37.2645 44.3394C38.9947 39.9616 43.7824 36.7732 48.4487 36.9287C50.208 36.9871 51.9559 37.3836 53.3164 37.5714L53.3174 37.5724ZM47.1411 45.9316C44.0016 46.3009 42.1332 47.8784 40.9191 50.3438C39.6729 52.8739 40.0571 55.3174 41.2515 57.6388C42.1488 58.8376 43.151 59.786 44.4585 60.3118C45.1772 60.6008 45.9613 60.8783 46.7184 60.8856C49.4519 60.9107 52.2051 59.6253 53.5054 56.176C54.6229 53.2109 53.8918 50.0997 51.528 48.132C50.3025 47.1116 48.9638 46.3093 47.1411 45.9326V45.9316Z" fill="#A9452D"/>
<path d="M166.569 40.9237C168.612 45.3338 168.901 49.7012 168.937 54.1062C168.948 55.4938 168.965 56.9106 168.078 58.0896C166.756 58.4996 165.767 57.8288 164.794 57.2038C164.127 56.3201 164.18 55.3164 164.248 54.3294C164.457 51.3299 164.336 48.3459 163.756 45.3985C163.608 44.6484 163.173 43.9545 162.975 43.483C161.792 42.6264 160.859 42.8351 159.672 43.4068C158.154 44.6546 157.019 46.5138 155.972 48.443C154.931 50.3585 155.011 52.7363 153.539 54.4379C152.444 55.0723 151.381 55.5491 150.172 54.3941C150.079 53.958 149.866 53.3894 149.853 52.8156C149.822 51.4217 149.816 50.0205 149.919 48.6308C150.461 41.2763 151.05 33.924 151.601 26.5706C151.81 23.788 151.941 20.9992 152.148 18.2156C152.413 14.639 152.707 11.0646 153.025 7.49325C153.058 7.12183 153.333 6.77231 153.495 6.41236C154.181 5.98251 154.895 5.6716 155.907 5.93243C156.106 6.3195 156.548 6.80361 156.581 7.3138C156.699 9.09998 156.734 10.8976 156.693 12.689C156.539 19.6658 156.414 26.6436 155.587 33.5859C155.331 35.7414 155.208 37.9157 155.495 40.0306C156.145 40.09 156.55 40.2466 156.848 40.1297C157.583 39.8417 158.25 39.3848 158.978 39.0718C161.844 37.8417 164.388 38.1296 166.57 40.9247L166.569 40.9237Z" fill="#A9452D"/>
<path d="M103.635 52.7238C107.747 53.4207 111.735 52.2887 115.502 53.042C116.028 54.9794 115.056 55.9351 114.007 56.8324C113.077 57.3697 112.077 57.3123 111.092 57.3092C107.529 57.2998 103.967 57.2622 100.405 57.2727C99.4086 57.2758 98.4293 57.449 97.6691 58.5988C97.83 60.5529 98.0076 62.7137 98.1728 64.7148C97.1041 66.3079 95.8464 67.1009 94.0964 66.9402C92.7099 62.458 91.8417 53.0253 92.2675 46.6902C94.2501 43.9274 96.6014 41.2701 99.7628 39.4693C100.607 38.9883 101.567 38.5793 102.515 38.4552C103.458 38.331 104.452 38.6064 105.192 38.6826C107.375 40.1245 107.663 41.9973 107.151 44.0777C106.672 46.0224 105.755 47.7898 104.72 49.4946C104.214 50.3272 103.477 51.0659 103.636 52.7217L103.635 52.7238ZM96.5183 52.8803C98.7138 50.9407 100.417 48.5932 101.855 46.035C102.042 45.7021 102.227 45.29 102.197 44.9322C102.155 44.4074 101.918 43.8993 101.771 43.4099C98.9413 43.7407 98.5165 44.0704 95.5317 48.1508C95.1402 49.4717 94.9252 50.8176 95.5431 52.128C95.6833 52.4243 96.1164 52.5819 96.5183 52.8792V52.8803Z" fill="#A9452D"/>
<path d="M187.023 7.18754C188.554 5.76026 189.596 5.92615 190.624 6.80985C190.756 7.1698 191.036 7.54645 190.996 7.88553C190.551 11.6321 190.178 15.3923 189.552 19.1097C187.836 29.3009 185.997 39.4724 184.23 49.6553C183.62 53.1651 183.253 56.7207 182.355 60.1053C180.75 60.8784 180.75 60.8857 178.865 60.4903C178.711 60.0177 178.376 59.4741 178.387 58.9357C178.409 57.7484 178.531 56.5507 178.739 55.3801C180.369 46.182 182.056 36.9955 183.668 27.7944C184.319 24.0749 184.806 20.3273 185.408 16.5994C185.915 13.4653 186.481 10.3405 187.024 7.18858L187.023 7.18754Z" fill="#A9452D"/>
<path d="M123.044 31.5034C127.272 32.6521 129.25 36.1337 130.817 40.2549C128.353 42.8455 124.756 43.2305 122.424 44.8967C121.56 45.9191 121.567 46.6943 121.714 47.4966C122.003 49.0919 122.58 50.5421 123.765 51.6522C124.694 52.1843 125.635 52.3659 127.016 51.9225C127.63 51.4029 128.522 50.6506 129.413 49.9005C130.45 49.8504 130.512 49.9224 131.12 52.0247C130.698 52.7091 130.188 53.5386 129.633 54.44C128.908 54.7217 128.201 55.0817 127.452 55.2736C125.284 55.8266 123.145 55.7943 120.896 54.6153C120.4 54.0331 119.762 53.284 119.188 52.61C118.632 50.7873 118.114 49.0856 117.66 47.5926C116.724 46.4397 114.682 46.4345 115.418 43.8085C115.745 43.5602 116.523 42.9707 117.343 42.3478C117.756 40.8183 118.086 39.2595 118.603 37.7655C119.118 36.2767 119.747 34.8149 120.468 33.4158C120.92 32.5405 121.666 31.8394 123.047 31.5034H123.044ZM123.701 35.9553C123.223 36.1035 122.692 36.2673 122.254 36.4029C121.534 37.5109 121.139 38.572 121.386 39.7843C122.87 41.3076 123.181 41.2669 125.524 39.2449C125.499 37.4306 125.526 37.4097 123.701 35.9553Z" fill="#A9452D"/>
<path d="M134.084 51.236C134.414 50.707 134.719 50.2198 134.963 49.8296C136.955 48.9333 138.373 51.262 139.151 50.9376C141.225 50.1102 141.864 49.432 141.94 48.2969C141.869 47.2483 141.321 46.4199 140.601 45.7167C139.604 44.7433 138.522 43.8575 137.539 42.8695C136.12 41.4422 134.944 39.8449 134.491 37.921C134.264 36.3382 134.821 35.0622 135.646 33.9104C136.744 32.3777 138.237 31.4116 140.153 31.3605C141.331 31.3292 142.514 31.4993 143.399 31.5587C144.748 32.2515 145.856 32.746 146.207 34.0606C146.291 34.9704 145.764 35.4994 144.874 36.0597C143.69 35.9668 142.331 35.8593 141.21 35.7707C139.912 36.1515 139.319 36.8933 139.017 37.9324C138.913 39.2147 139.515 40.2497 140.357 41.124C141.462 42.2706 142.687 43.2993 143.8 44.4397C144.631 45.2911 145.422 46.1956 146.124 47.1555C146.876 48.1832 146.965 49.4112 146.6 50.5954C145.723 53.4363 143.209 55.2069 140.299 55.1651C138.855 55.1443 137.58 54.6435 136.379 53.8975C135.352 53.259 134.461 52.5005 134.085 51.236H134.084Z" fill="#A9452D"/>
<path d="M173.818 77.4715C172.81 75.3828 173.125 73.3879 174.375 71.6237C176.594 70.5052 178.372 70.8662 179.923 72.2935C180.664 73.4192 180.797 74.5586 180.535 75.7688C179.892 78.7486 177.553 79.8055 174.719 78.3584C174.389 78.1904 174.162 77.82 173.817 77.4715H173.818Z" fill="#A9452D"/>
</g>
<defs>
<clipPath id="clip0_19_1788">
<rect width="191" height="79" fill="white"/>
</clipPath>
</defs>
</svg>
